# xmcd CD database file
#
# Track frame offsets:
#	150
#	13865
#	27130
#	40779
#	54491
#	68997
#	87039
#	104102
#	116481
#	129211
#	143306
#	158368
#	174666
#	189467
#	211080
#	236347
#	256153
#	281114
#	307257
#
# Disc length: 4441 seconds
#
# Revision: 1
# Processed by: cddbd v1.5.2PL0 Copyright (c) Steve Scherf et al.
# Submitted via: CDex 1.83
#
DISCID=fa115713
DTITLE=Gene Krupa - Seven Classic Albums
DYEAR=2016
DGENRE=Jazz
TTITLE0=I Hope Gabriel Likes My Music
TTITLE1=I'm Gonna Clap My Hands
TTITLE2=Mutiny In The Parlor
TTITLE3=Bird House
TTITLE4=Margie
TTITLE5=Mulligan Stew
TTITLE6=Begin The Beguine
TTITLE7=Sugar
TTITLE8=The Way Of All Flesh
TTITLE9=Disc Jockey Jump
TTITLE10=Birds Of A Feather
TTITLE11=Sometimes I'm Happy
TTITLE12=How High The Moon
TTITLE13=If You Were The Only Girl In The World
TTITLE14=Yardbird Suite
TTITLE15=Big Noise From Winnetka
TTITLE16=Take The 'A' Train
TTITLE17=Some Of These Days
TTITLE18=Sweet Georgia Brown
EXTD=YEAR: 2016
EXTT0=
EXTT1=
EXTT2=
EXTT3=
EXTT4=
EXTT5=
EXTT6=
EXTT7=
EXTT8=
EXTT9=
EXTT10=
EXTT11=
EXTT12=
EXTT13=
EXTT14=
EXTT15=
EXTT16=
EXTT17=
EXTT18=
PLAYORDER=
